<svg xmlns="http://www.w3.org/2000/svg" xmlns:xlink="http://www.w3.org/1999/xlink" width="676.845" height="474.075" viewBox="0 0 676.845 474.075">
  <defs>
    <linearGradient id="linear-gradient" x1="0.074" y1="0.642" x2="0.958" y2="0.648" gradientUnits="objectBoundingBox">
      <stop offset="0" stop-color="#f36c8c"/>
      <stop offset="0.373" stop-color="#eed765"/>
      <stop offset="0.647" stop-color="#33e53f"/>
      <stop offset="1" stop-color="#6172f5"/>
    </linearGradient>
  </defs>
  <path id="color_x5F_1" d="M245.436,328.574c-.84-.6.793-1.61,1.177-1.772a3.054,3.054,0,0,1,2.919.044,23.854,23.854,0,0,0,8.433,3.468c.886.222,1.138.922.419,1.562a3.8,3.8,0,0,1-3.118.837A27.645,27.645,0,0,1,245.436,328.574Zm-5.345-25.186a3.687,3.687,0,0,0,2.869-.148c.18-.068,2.078-1.02,1.266-1.434-1.613-.823-3.537-1.965-4.427-3.6-.674-1.242-4.881.313-4.411,1.18A10.636,10.636,0,0,0,240.09,303.388Zm-32.359,40.478a4.99,4.99,0,0,0,2.947-1.073,2.472,2.472,0,0,1,.326-.268c.105-.011.444-.1.524-.105.855-.082,1.72-.071,2.577-.071a5.7,5.7,0,0,0,3.12-.836c.671-.446.6-1.047-.282-1.047-3.536,0-7.512.049-10.272,2.6C205.91,343.769,207.333,343.894,207.732,343.867ZM226,293.644a14.965,14.965,0,0,0,9.033-4.118c.744-.711-.648-.833-1.062-.8a4.929,4.929,0,0,0-2.945,1.075,9.506,9.506,0,0,1-2.947,1.9c-.674.271-.292.075-.2.07a4.776,4.776,0,0,0-2.945,1.075C224.2,293.565,225.571,293.663,226,293.644Zm375.154,34.4a6.029,6.029,0,0,0-2.956,1.035c-3.163,2.309-7.884,1.747-10.176,5.476-2.7,4.394,4.239,7.12,7.439,7.248a6.016,6.016,0,0,0,3.12-.836c.729-.437.578-.859-.239-.892-3.265-.131-8.789-3.587-5.353-7.15,1.142-1.183,3.141-1.548,4.644-2.044a16.223,16.223,0,0,0,4.542-2.186C603.009,328.085,601.432,328.018,601.151,328.044Zm15.092,23.362c-2.352,2.163-5.195,1.994-8.184,1.593-2.2-.294-4.484,2.863-1.513,3.262,4.458.6,9.155.415,12.637-2.788C621.381,351.45,617.9,349.878,616.242,351.406Zm10.748-29.429a32.151,32.151,0,0,0-1.1,7.12c-.034,2.146,4.417,1.364,4.447-.419a32.066,32.066,0,0,1,1.1-7.12C631.919,319.6,627.426,320.2,626.991,321.978Zm-28.484-9.313a22.272,22.272,0,0,1-.957,7.832c-.843,2.268,3.566,1.985,4.173.349a23.977,23.977,0,0,0,1.231-8.6C602.954,310.1,598.508,310.893,598.507,312.665ZM606.9,304c.944,1.172,5.184-.371,4.1-1.718-2.5-3.1-6.6-2.945-10.036-1.679-.528.195-1.869,1.044-1.18,1.752.7.726,2.126.326,2.916.034C604.359,301.781,605.87,302.731,606.9,304Zm19.748,5.645c-1.007.114-2.3.686-2.411,1.852-.108,1.1,1.138,1.676,2.072,1.569,3.4-.384,7.409-.385,9.11,3.122.918,1.884,5.083.183,4.026-2C637.171,309.523,631.181,309.138,626.645,309.65Zm124.718,25.338c-4.379,8.476-12.069,10.824-20.334,11.354a15.9,15.9,0,0,1-3.648.626H725.1c7.024,4.816,14.649,11.636,6.516,19.014-9.477,8.6-22.6,5.33-33.695,1.819,2.744,9.144-.291,20.99-9.928,24.062a16.363,16.363,0,0,1-6.088.72c-.105.028-.178.044-.178.044l-.1-.067c-6.595-.53-13-4.637-18.273-9.076a26.784,26.784,0,0,0,6.272,14.156.456.456,0,0,1,.125.362.881.881,0,0,1-.327.53c.974-.365,1.977-.7,3-1,19.043-5.741,46.318-1.667,58.025,14.144,7.587,10.246,9.066,25.679,10.518,37.95,1.417,11.989,2.7,24.609.761,36.614-.068.426-.747.8-1.551,1.046a155.278,155.278,0,0,1-5.184,51.36c-2.053,7.255-4.765,14.486-8.867,20.582-.275,16.538-3.531,33.167-2.444,49.7.09,1.361-4.345,2.178-4.411,1.183-.009-.141-.012-.283-.021-.423-.043.046-.075.091-.128.14-4.666,4.36-15.065,3.759-20.865,4.041-13.906.674-27.873.417-41.776-.249-13.926-.67-27.968-1.556-41.745-3.793-3.505-.571-13.538-1.208-16.926-4.79a4.806,4.806,0,0,1-.381-.454c-.056-.076-.119-.149-.169-.225-.706-.1-1.172-.481-.938-1.19,3.271-9.993,3.507-21.607,4.616-31.978,1.624-15.162,3.039-30.345,4.376-45.534-13.384,17.3-32.339,30.844-54.385,32q1.534,3.155,3.064,6.31,7.995,16.483,15.816,33.05c2.47,5.237,6.051,10.85,7.6,16.465.212.764-.77,1.326-1.31,1.581l-.011,0a2.992,2.992,0,0,1-.851.254,4.7,4.7,0,0,1-1.706.5H291.451a4.081,4.081,0,0,1-.566-.036c-1.35.35-2.848.212-2.51-.67q1.653-4.326,3.262-8.666c.542-1.463,4.952-2.02,4.408-.556q-1.491,4.025-3.021,8.033a1.818,1.818,0,0,1,.3-.031H572.751c-1.344-4.281-3.986-8.54-5.867-12.536q-6.347-13.492-12.816-26.925-4.034-8.378-8.123-16.731c-.654-.023-1.306-.044-1.965-.09-2.475-.164-1.065-2.106.586-2.7-1.455-2.954-2.9-5.914-4.38-8.856-1.173-2.333-4.332-10.978-6.541-12.867-.642-.1-1.093-.42-1-1.046a1.509,1.509,0,0,1,.431-.784,2.493,2.493,0,0,1-.641.1c-69.6,0-139.2.267-208.8.276-6.053,13.266-9.821,27.394-15.316,40.889,8.485,1.189,16.987,2.164,25.5,2.749a2.62,2.62,0,0,1,1.068-.291c11.263-.6,20.9-17.691,32.24-7.458a1.763,1.763,0,0,1,.358.448c6.936-1.563,13.375-3.4,20.174-2.863a28.72,28.72,0,0,1,9.674,2.5c1.685.758,12.336,5.686,12.214,8.8a1.513,1.513,0,0,1-.741,1.187,9.877,9.877,0,0,1-5.668,1.528c.107.181.215.356.318.542.451.805.874,1.674,1.275,2.593,2.877.881,5.79,1.645,8.651,2.58.692.225.977.583.991.974.043,1.108-2.112,2.5-3.529,2.032-2.615-.855-5.274-1.561-7.91-2.351-.671.488-1.385.907-2.257,1.444a2.678,2.678,0,0,1-.551.252c2.292,3.775,3.331,8.163,1.656,12.292-.533,1.31-2.709,1.629-3.808,1.02-9.188-5.087-16.536-10.136-26.934-4.788a67.472,67.472,0,0,1-18.79,6.9c-2.207.429-17.927,3.662-22.4,1.641H257.856c-20.047,0-41.553,2.167-61.408-1.28-15.615-2.711-29.753-10.817-36.046-26.018-6.31-15.249-6.677-31.841-9.672-47.872-3.671-.455-7.366-1.017-11.1-1.723a.426.426,0,0,1-.384-.545q1.6-10.23,2.7-20.466c-17.924-1.753-37.345-6.315-50.683-19.23-35.736-34.6-4.193-91.858,25.957-118.28a131.577,131.577,0,0,1,15.38-11.766c1.317-.849,2.635-1.7,3.983-2.493,2.376-1.4,1.008-3.33.419-5.7-1.237-4.983-2.4-10-3.2-15.075-2.263-14.427-3.286-30.49,2.47-44.3,7.832-18.8,25.3-27.727,44.633-29.9,5.925-24.3,40.964-34.893,59.52-17.586,9.727,9.072,11.436,21.426,3.813,32.651-.24.355-.5.686-.75,1.03a2.592,2.592,0,0,1,2.254.1c8.642,8.272,15.879,21.6,29.33,13.235.609-.381,3.189-1.222,3.539-.066,1.712,5.666-1.344,9.26-5.459,12.74a.548.548,0,0,1,.133.2c4.019,10.293,13.2,17.842,16.923,28.128,3.14,8.677-2.666,13.529-10.117,16.85-12.323,5.494-24.854,7.993-34.957,17.837-9.736,9.488-14.094,21.091-10.885,34.386.915.026,1.721.431,1.77,1.367,1.618,30.513,39.656,45.12,42.664,75.138.68,6.787-.415,12.76-4.178,18.5-3.781,5.773-9.637,10.416-10.194,17.815-.61,8.091-.1,16.408-.358,24.542-.294,9.129-.732,18.385.676,27.446a1.476,1.476,0,0,1-.539,1.327c13.377,2.272,26.81,4.729,40.288,6.719,5.47-13.71,9.283-28.032,15.619-41.4-.67.015-1.183-.126-1.183-.476-.032-42.873-1.49-85.733-1.522-128.606,0-1.478,4.409-2.208,4.411-1.18v.143a2.677,2.677,0,0,1,.921-.193q38.566,0,77.132.23V363.466c0-1.587,4.426-2.479,4.426-.493v37.632q27.215.133,54.43.257V359.751c0-1.476,4.411-2.205,4.411-1.18v42.312q35.016.16,70.032.2c1.109-1.072,4.026-1.272,4.024.458-.023,37.628-.052,75.388-1.068,113.031,26.662.2,40.693-24.084,51.388-45.279a17.038,17.038,0,0,1-3.548-2.432c-.379-.339.085-.817.825-1.2-.857.062-1.549-.093-1.454-.577,3.554-17.967,14-55.937,33.736-67.059a25.484,25.484,0,0,1,3.72-1.723,23.8,23.8,0,0,1,17.209.458,77.178,77.178,0,0,0-6.815-8.41c-6.526-6.739-12.754-8.175-21.866-8.659-11.607-.615-24.612-2.895-30.575-14.314-6.681-12.792-.1-25.8,4.595-38.116,1.543-4.05,3.079-8.135,4.717-12.179-10.628.131-28.2.763-32.129-11.343-3.637-11.2,7.286-14.646,16.249-17.51.928-.463,1.747-.851,2.46-1.173-4.93-3.9-11.769-7.01-7.91-13.734a7.337,7.337,0,0,1,1-1.5c.03-.04.053-.078.085-.117.1-.131.212-.239.314-.364,3.854-4.671,10.057-5.446,16-5.525.3-.066.554-.119.788-.169.075-3.3-2.393-7.423-3.449-10.027a39.974,39.974,0,0,1-3.258-11.649c-.481-5.622,3.364-11.345,8.515-13.5,9.506-3.982,22.294-2.382,31.275,3.548,1.112.279,1.962.511,2.456.654-.152-10.186.143-21.116,7.56-27.167,1.6-2.365,3.542-3.884,5.89-3.884.7,0,1.379.037,2.032.1.026-.006.047-.015.073-.021,12.652-3.079,20.341,11.608,23.347,22.14,13.979-12.139,44.632,4.572,34.129,20.46,1,.027,2.141.067,3.362.122,8.438-1.6,17.169-1.344,22.868,6.243,4.435,5.9-.03,11.867-5.295,16.524,7.118-2.782,14.858-4.134,20.2,1.447a15.222,15.222,0,0,1,2.187,17.927c4.152.782,11.068,2.7,13.005,7a7.5,7.5,0,0,1,1.68,3.3c1.919,8.8-8.706,15.879-16.918,19.86-1.51,1.3-2.5,2.085-2.5,2.085s12.433.5,15.99,6.726C751.453,327.86,753.46,330.928,751.363,334.987Zm-7.595-27.342a18.258,18.258,0,0,0,1.632-1.936C744.878,306.359,744.33,307.008,743.768,307.645ZM131.862,361.007a137.3,137.3,0,0,0-19.679,16.863C117.884,372.671,125.816,366.007,131.862,361.007Zm85.9-72.7a34.487,34.487,0,0,0,5.707-1.25C221.43,287.584,219.466,287.995,217.762,288.305Zm-10.957,46.434c.072-.006.139-.015.212-.02.117-.091.24-.175.352-.272A5.973,5.973,0,0,0,206.805,334.739Zm-1.8,14.7c1.323,2.023,3.4,4.336,6.012,4.473a6.448,6.448,0,0,0,4.414-1.7c.356-.4.571-.68.571-.68s.006.067.014.167a18.067,18.067,0,0,0,1.755-1.924c.053-.114.1-.24.152-.353a1.147,1.147,0,0,1,.452-.425c.425-.571.813-1.129,1.163-1.641.924-1.353,5.411-1.558,4.155.277a34.9,34.9,0,0,1-2.368,3.1c-4.061,10.27-1.645,21.735-.924,32.465.151,2.228.262,4.592.224,6.977a1.638,1.638,0,0,1,.721.472,45.684,45.684,0,0,0,7.951,7.111c-3.7-22.137,14.358-38.583,33.835-46.56,9.524-3.9,29.269-6.82,22.123-21.123-4.721-9.444-12.5-16.952-16.382-26.884-.079-.2.036-.417.268-.624-.361-.171-.4-.484.2-.983,3.338-2.779,5.767-5.5,5.234-9.605-4.736,2.4-10.334,3.919-15.3,1.575-7.161-3.385-11.815-10.316-17.372-15.72-6.916,8.266-16.637,12.681-27.365,13.29a1.308,1.308,0,0,1,.171.635c.184,12.13,7.225,37.133-5.35,45.263a3.063,3.063,0,0,1-1.918.387,2.806,2.806,0,0,1-.542.072C200.914,337.614,202.878,346.191,205,349.438Zm-12.564,64.611c1.225.037,2.464.037,3.718-.02a29.513,29.513,0,0,0,5.895-.823A61.792,61.792,0,0,1,192.438,414.049Zm-43.726,17.419a37.3,37.3,0,0,1,3.5-5.727c-.568.612-1.126,1.237-1.659,1.889A11.685,11.685,0,0,0,148.711,431.468Zm-6.31,70.381-.409,1.736-.024.1.035,0c.07.008.14.014.21.023Q142.311,502.778,142.4,501.849ZM155.079,527.7c.406.031.772.058,1.047.093,2.886.361,5.779.677,8.678.915,2.645.215,5.295.361,7.949.391a173.518,173.518,0,0,0,28.033-2.253,3.5,3.5,0,0,1,.463-.25,3.951,3.951,0,0,1,2.927-.277q4.048-.664,8.088-1.415c-2.3-4.242-1.921-13.821-2.176-17-1.074-13.342-1.586-26.727-1.622-40.11,0-1.669,4.408-2.491,4.411-1.179.032,12.023.411,24.067,1.307,36.058.359,4.79.717,9.6,1.4,14.357.187,1.3.329,6.7,1.7,7.494,1.764,1.026-2.318,2.789-3.522,2.09a2.939,2.939,0,0,1-.358-.285,3.764,3.764,0,0,1-.546.154q-4.125.769-8.2,1.4c1.125,9.059-.346,25.714,9.526,29.647.68.271,1.377.5,2.077.718a40.525,40.525,0,0,0,5.9,1.31c4.088.626,8.289.845,12.29,1.364,7.4.961,14.8,2,22.166,3.19.358.058.718.107,1.078.165.814.134,1.631.277,2.446.413-.012-.076-.02-.152-.03-.227-1.2-8.324-.969-16.807-.7-25.189.233-7.185-.572-15.188-.041-22.557l.009-.119c.1-1.419.24-2.82.466-4.179,1.108-6.736,4.761-11.214,8.821-16.457,5.067-6.538,7.089-14.071,5.038-22.227-6.756-26.852-38.354-42.008-41.88-69.842a2.063,2.063,0,0,1-1.254-.291,76.536,76.536,0,0,1-10.354-7.931c-.775,5.426-2.816,10.5-7.535,13.826-9.766,6.873-20.242,6.5-31.621,5.062-23.948-3.023-33.346,20.324-32.109,39.886a.686.686,0,0,1-.338.552,371.547,371.547,0,0,1-2.977,57.132c-.493,3.721-1,7.443-1.578,11.151-.455,2.916,3.749,3.8,7.452,4.158,1.239-.694,3.348-.889,3.529.059C155.057,527.559,155.066,527.628,155.079,527.7Zm149.625,47a2.336,2.336,0,0,1-.724-.106c-19.525-2.822-38.943-6.736-58.4-9.567-8.068-1.173-16.151-2.278-24.259-3.15-4.651-.5-10.648-1.11-14.246-4.559-7.021-6.728-5.578-19.772-6.9-28.776a191.019,191.019,0,0,1-44.743,1.175c2.545,14.737,2.822,30.359,8.592,44.294,7.663,18.51,24.4,26.735,43.786,27.726,20.213,1.033,40.606.289,60.842.289h60.405c1-1.058,3.561-1.39,4.027,0h0c-.335-1.084-.881-.6.8-.578,1.42.015,2.84-.012,4.259-.091,2.791-.155,5.586-.351,8.359-.72,8.474-1.12,14.976-3.671,22.618-7.222,11.436-5.312,19.122-2.357,29.012,2.976.17-4.921-3.435-10.622-7.2-13.142-4.385-2.933-8-5.226-13.5-2.928-2.169.907-4.322,1.849-6.484,2.773-2.2.942-4.7-1.216-1.9-2.411,8.914-3.817,15.3-6.577,23.971-.779a24.52,24.52,0,0,1,5.223,4.76,3.538,3.538,0,0,1,.444-.329c1.813-1.12.693-3.624-.913-5.745-.488-.113-.965-.23-1.414-.35-.589-.158-.28-.541.362-.919a13.766,13.766,0,0,0-2.155-2,15.641,15.641,0,0,0-10.567-2.741c-6.19.629-11.917,2.858-17.576,5.336-2.3,1-4.747-1.5-1.983-2.714,13.069-5.72,28.216-9.683,37,1.546,4.653.9.752-2.248-1.906-3.891a47.5,47.5,0,0,0-7.634-4.129c-3.936-1.525-8.044-2.6-12.3-1.893-4.2.7-8.279,1.863-12.4,2.89a2.857,2.857,0,0,1-3.166.75c-1.677.371-3.363.7-5.074.928-3.094.422-1.129-1.61.755-1.867q1.271-.174,2.511-.393c-5.277-3.269-10.007,1.4-14.864,4.5-4.015,2.565-8.005,4.595-12.836,4.849-1.082.058-1.667-.355-1.858-.911a2.09,2.09,0,0,1-.584.071C322.931,577.054,313.806,575.994,304.7,574.691ZM404.177,412.4q27.215.13,54.43.256v-8.938q-27.215-.13-54.43-.257Zm-4.426,31.223V414.069q-29.468-.137-58.94-.172c.075,34.2,1.183,68.382,1.237,102.578,56.783.012,113.565.557,170.348.6.983-14.683.349-29.688.539-44.378.248-19.4.578-38.8.6-58.194q-25.259-.007-50.519-.132v32.482c0,1.476-4.411,2.205-4.411,1.18V414.346q-27.215-.121-54.43-.256v29.044C404.177,444.72,399.751,445.612,399.751,443.627Zm132.87-39.687q-34.8-.009-69.6-.2v8.939q25.542.112,51.087.14c1.186-.805,3.846-1.07,3.846-.374-.015,20.241-.365,40.483-.627,60.719-.189,14.541.47,29.4-.592,43.915l.461,0c1.176,0,.393.527-.674.986-.813,1.067-4.223,1.619-4.231.773,0-.017,0-.032,0-.05s.006-.024.006-.035a.006.006,0,0,0,0,0c-56.865-.023-113.729-.571-170.6-.6-1.044.779-4.053,1.1-4.055.636-.03-35.266-1.219-70.522-1.251-105.789,0-1.155,4.409-1.744,4.411-1.179,0,.224,0,.449,0,.673a4.722,4.722,0,0,1,1.145-.276q28.9,0,57.8.163v-8.94q-39.02-.187-78.041-.237c.093,41.816,1.469,83.62,1.508,125.438.986-.082,1.779.111,1.516.658-.038.081-.072.161-.11.242,68.824-.006,137.644-.26,206.464-.271.017-.181.041-.46.049-.919q.032-1.97.061-3.939.093-6.31.183-12.617.272-19.248.518-38.494C532.2,450.185,532.586,427.062,532.621,403.94ZM655.042,297.854a27.146,27.146,0,0,1,.744,3.106,27.337,27.337,0,0,1,.061-3.458S655.552,297.638,655.042,297.854Zm-63.207-68.266a51.06,51.06,0,0,1,5.993-.3A21.222,21.222,0,0,0,591.835,229.588ZM605.8,520.111q.016-.178.032-.356,1.573-18.145,3.006-36.305c.281-3.639.3-7.575.276-11.64-5.847.105-12.31.6-17.99-1.029-11.744,23.041-27.079,46.583-55.21,47.026q-.164,5.822-.353,11.64a1,1,0,0,1-.231.545,1.563,1.563,0,0,1-.21.248c-.02.018-.037.037-.058.056-.065.059-.14.12-.219.181a2.445,2.445,0,0,1,2.269.509,28.944,28.944,0,0,1,3.053,5.24c3.246,6.143,6.337,12.368,9.388,18.612,22.865-.231,42.128-15.65,54.823-33.884A2.623,2.623,0,0,1,605.8,520.111Zm129.9-32.913a1.07,1.07,0,0,1,.012-.14c-1.61.195-3.3.184-4.575.285-6.088.475-12.2.767-18.3.845-4.583.058-10.112.423-15.6.245-.568,9.12-2.742,18.041-4.56,26.994q-.441,2.185-.842,4.376c.093.11.184.219.279.329a206.831,206.831,0,0,0,14.154,15.742c1.129,1.094-3.023,2.744-4.1,1.7a193.134,193.134,0,0,1-13.591-15.154c-.836-.014-1.485-.321-1.358-1.047.029-.157.061-.31.088-.469-6.741-8.041-13.6-15.909-22.642-21.75a.985.985,0,0,1-.323-.324c-.079-.032-.128-.075-.12-.128s.026-.1.032-.158a.624.624,0,0,1,.049-.231c1.163-7,5.733-12.9,7.9-19.583.957-2.95,2.189-7.5-1.4-9.3-5.071-2.534-7.75,5.811-8.774,9.394-.082.286-.429.533-.893.73.543.659,1.081,1.353,1.6,2.116.919,1.353-3.362,2.767-4.114,1.662-6.175-9.08-15.818-11.908-23.881-2.586-3.735,4.316-9.352,11.8-7.758,17.971,2.842,10.99,16.544,15.089,22.607,24.032a.641.641,0,0,1,.079.607c6.622,10.672,13.651,21.286,22.257,30.465,9.29,9.906,25.434,24.218,39.859,15.314a34.557,34.557,0,0,0,9.943-9.453c0-.061,0-.122,0-.184,0-.374.321-.694.779-.95,5.7-8.535,8.5-19.3,10.348-29.19A165.5,165.5,0,0,0,735.694,487.2ZM667.34,400.971c-1.481,5.487-6.686,11.885-12.619,12.086-6.793.231-9-3.742-11.378-9.146a.911.911,0,0,1-.3-.227c-.928-1.161-1.825-2.354-2.712-3.56a3.245,3.245,0,0,1-2.242.192c-31.167-16.917-46.422,43.349-50.513,64.038a1.154,1.154,0,0,1-.618.661,1.459,1.459,0,0,1,1.012.25,15.386,15.386,0,0,0,2.4,1.763c.961-.043,1.832.274,1.919.982,5.1,2.208,11.139,1.921,16.8,1.75-.09-13.43-.152-27.99,7.884-37.94,1.182-1.466,5.4-.983,3.656,1.172-6.531,8.085-6.4,20.4-6.581,30.281-.134,7.257-.345,14.448-.915,21.682q-1.484,18.83-3.14,37.645c-1.457,16.583-2.96,33.17-4.777,49.72-1.058,9.628-1.339,20.326-4.229,29.683a.782.782,0,0,1,.268.351c1.495,4.367,14.988,5.029,18.536,5.537,12.212,1.746,24.543,2.688,36.862,3.28,12.361.594,24.764.927,37.136.563,5-.148,10.033-.326,15-.953,1.874-.235,5.332-.192,6.811-1.574a4.648,4.648,0,0,1,3.584-.53c-.74-14.588,1.717-29.245,2.379-43.842a32.759,32.759,0,0,1-12.077,7.926c-.1.04-.21.064-.315.1a28.2,28.2,0,0,1-4.332,1.187c-26.609,5.091-48.813-31.993-60.191-50.435a.853.853,0,0,1-.131-.513c-9.447-12.25-29.838-17.839-18.224-36.424,7.724-12.357,21.758-19.162,32.372-9.7,3.123-6.7,10.97-14.693,17.813-7.777,2.963,3-.018,9.319-1.365,12.313-2.291,5.091-5.606,10.276-6.464,15.872,7.681,5.065,13.821,11.511,19.658,18.275,1.858-9.121,4.064-18.211,4.542-27.513-4.619-.458-9.012-1.482-12.544-3.635-1.173-.717-.315-1.714.9-2.246a.914.914,0,0,1-.312-.942c2.37-12.584,5.654-25.1,3.309-37.949-.358-1.963,4.065-3.079,4.411-1.182,2.392,13.115-.846,25.867-3.266,38.732a2.065,2.065,0,0,1-1.322,1.346,25.55,25.55,0,0,0,9.488,2.887c1.187-.913,3.892-1.145,3.867.356,6.156.349,12.606-.175,17.516-.291,1.265-.03,2.528-.085,3.793-.125,3.555-.116,7.109-.279,10.655-.534.379-.027.76-.038,1.138-.068,1.607-.126,3.214-.247,4.814-.435.837-.1,2.1-.676,1.609-.233a4.078,4.078,0,0,1,.9-.3c1.114-10.126.16-20.708-1.021-30.71-1.277-10.8-2.758-22.131-6.662-32.349-8.164-21.358-42.3-29.1-61.6-19.792A4.029,4.029,0,0,1,667.34,400.971Zm5.548-57.9q-2.988-2.618-5.5-.122c-3.566,2.653-6.649,6.254-10.914,7.768-.807.286-2.434.079-2.627-.977a29.536,29.536,0,0,1,2.149-16.985,11.5,11.5,0,0,1,.668-1.424,31.664,31.664,0,0,1,6.231-8.613c-9.047-1.2-9.416-13.634-11.824-22.245a22.965,22.965,0,0,1-5.491.521,14.151,14.151,0,0,1-2.667.31,3.433,3.433,0,0,1-2.3-.959c-3.654-.936-6.636-2.931-7.056-6.33-8.486.661-21.417,1.5-28.144-4.032a80.175,80.175,0,0,0-5.42,8.348l-2.733,5.162c-4.055,8.187-7.181,16.874-10.468,25.387-5,12.943-12.32,29.806.7,40.862,6.768,5.745,14.8,7.125,23.435,7.485,4.945.207,10.389-.093,14.932,2.266,9.106,4.729,14.336,13.565,20.46,21.422a1.407,1.407,0,0,1,.983.773c1.338,3.093,3.353,9.966,8.213,8.374,3.954-1.3,6.91-5.823,7.625-9.765.137-.753,1.01-1.3,1.95-1.54-4.756-5.57-6.385-12.55-6.677-19.767l-.06-.058c-.125-.123-.093-.279.044-.443a135.229,135.229,0,0,1,.939-16.958c.047-.5.788-.942,1.644-1.2a1.884,1.884,0,0,1,1.2-1.035,21.746,21.746,0,0,0,9.479-7.389C673.344,349.454,675.292,345.979,672.887,343.073Zm22.344,20.541-1.333-.667s.087.384.222,1.043A3.916,3.916,0,0,1,695.231,363.614ZM725.138,351.6a37.948,37.948,0,0,1,5.639,7.61C730.294,356.252,727.931,353.73,725.138,351.6Zm1.169-83.381a15.411,15.411,0,0,0-9.019.5A49.246,49.246,0,0,1,726.307,268.221Zm21.426,65.69a16.758,16.758,0,0,1-3.234,4.826A7.82,7.82,0,0,0,747.733,333.911ZM475.151,578.471a27.243,27.243,0,0,1-3.015,2.14,41.9,41.9,0,0,1-8.7,3.943,57.369,57.369,0,0,1-8.193,2.049c-1.68.289-3.269.485-4.7.594a4.994,4.994,0,0,0-1.665.595c-1.217.645-2.157,1.56-.184,1.412,13.3-1,29.4-5.374,35.737-18.427,7.206-14.85-11.55-24.52-22.813-27.672a106.413,106.413,0,0,0-25.114-3.581c-3.333-.09-6.719-.042-10.1.18-18.638,1.225-37.042,7.543-44.89,22.743-.247.476.948.574,2.161.359a3.271,3.271,0,0,0,2.208-1.064,29.7,29.7,0,0,1,2.392-3.864,30.786,30.786,0,0,1,5.053-5.417q.694-.585,1.42-1.131a42.828,42.828,0,0,1,12.976-6.488c15.71-4.969,35.333-3.441,48.869-.263,10.273,2.412,23.231,8.021,24.737,19.85C482.093,570.389,479.4,575,475.151,578.471Zm-45.093,23.735c.823-.254,1.5-.642,1.507-1.131.07-8.821,1.166-17.583,1.237-26.4a.164.164,0,0,0-.035-.083c-.365-.536-4.365.073-4.376,1.263-.07,8.821-1.166,17.583-1.237,26.4C427.151,602.668,428.78,602.6,430.058,602.206Zm5.595-107.243V442.2c0-2.336-4.472-1.68-4.472.327V495.29C431.181,497.627,435.653,496.971,435.653,494.963ZM373.525,282.992c4.344-9.435,5.412-21.067,6.92-31.267.145-.98,1.709-1.435,2.5-1.536,3.087-.391,8.741-1.84,13.054-1.621a79.629,79.629,0,0,1-.361-26.717c4.339-28.615,16.422-57.053,35.753-78.78a5.311,5.311,0,0,1,3.269-.877c1.014-.362,2.205-.467,2.644.028,19.563,21.985,32.643,51.715,36.036,80.943a90.766,90.766,0,0,1-.4,25.673c4.729-.811,11.116.886,15.09,1.389.3.038.811.289.865.647,1.531,10.349,2.66,22.031,7.069,31.6.228.5-.487,1.091-.825,1.294-15.6,9.432-14.372-16.355-26.533-18.131a1.405,1.405,0,0,1-.7-.248,115.367,115.367,0,0,1-11.219,19.378,1.16,1.16,0,0,1,.674.428c.5.724,4.347,1.444,5.237,1.793,2.671,1.039,5.692,2.055,7.993,3.818,3.657,2.805,4.2,7.631,4.759,12,1.409,11.057,2.189,23.91-.694,34.8-.353,1.336-2.831,2.071-3.954,1.368-8.581-5.379-10.607-16.233-12.349-25.5-1.011-5.374-.88-8.826-6.8-10.267a55.586,55.586,0,0,0-5.619-1.093c11.975,10.92,11.018,31.967,8.52,46.477-2.2,12.769-6.231,32.54-18.771,39.46-.4.219-4.091,1.467-3.838.414,3.942-16.5,6.627-31.526-2.552-45.929a19.811,19.811,0,0,0-2.205,11.062c.091.98-3.639,1.813-4.289,1.316-14.46-11.019-13.539-39.413-1.759-52.742-2.113.449-4.3,1.01-5.3,1.353-4.717,1.6-4.577,9.9-5.605,14.138-2.033,8.368-4.66,17.615-12.393,22.435-.743.464-3.24,1.227-3.6-.158-3.021-11.635-1.9-26.625.382-38.245.912-4.634,1.571-8.828,5.98-11.226a56.36,56.36,0,0,1,7.371-3.38c1.044-.387,2.087-.769,3.138-1.134a6.451,6.451,0,0,0,1.029-.5,111.8,111.8,0,0,1-11.23-20.612,3.229,3.229,0,0,1-1.7.823c-10.774,1.574-10.19,27.6-25.271,18.486A.779.779,0,0,1,373.525,282.992Zm48.711,15.924c-3-3.6-5.829-7.252-8.459-10.958-1.883.747-4.184,1.166-5.506,1.711-6.776,2.8-8.573,6.19-9.611,13.279-1.525,10.4-2.787,22.591-.69,33.194,4.939-5.1,6.75-13.221,8.175-19.877.752-3.517.556-10.427,3.8-12.751C412.279,301.836,417.516,299.722,422.235,298.917Zm-9.9-13.03-.014-.018c-.029.043-.043.067-.076.116C412.271,285.951,412.306,285.919,412.335,285.887Zm15.026,12.588a.64.64,0,0,1,.125.224c.09.014.174.032.26.046h14c.024,0,.043,0,.068,0,3.023-3.595,6.029-7.278,8.881-11.083-10.568.043-21.139.262-31.709.324C421.663,291.561,424.468,295.048,427.361,298.475Zm12.565,3.558c-.049-.036-.047-.091-.02-.152H427.4a2.834,2.834,0,0,1-.408,0h-1.9c-.056,0-.1-.009-.154-.011-10.024,11.646-11.657,35.028-2.017,47.527a30.712,30.712,0,0,1,4.267-10.114c.478-.808,3.711-1.87,4.374-1,11.069,14.5,9.138,29.774,5.359,46.227,8.926-9.138,12.29-27.312,13.631-38.133C452.335,332.012,452.935,311.725,439.927,302.034Zm14.515-14.139c-2.721,3.672-5.589,7.252-8.543,10.771,5.056.25,11.46,2.543,14.153,4.473,3.321,2.38,3.055,11.422,3.953,15.13,1.37,5.675,3.032,11.727,7.1,15.944,1.927-10.266,1.368-22.146-.42-31.989-1.143-6.287-2.654-9.354-8.712-11.856C460.626,289.817,456.579,289.056,454.442,287.895Zm15.25-26.825c-.384,1.041-.79,2.076-1.231,3.106a6.013,6.013,0,0,1,1.956-.928,2.431,2.431,0,0,1,.871-.085c6.158.9,9.127,6.337,11.739,11.407,1.327,2.578,2.878,6.846,5.665,8.267,4.213,2.144.854-4.817.391-6.686-1.861-7.514-3.228-15.151-4.4-22.8a2.575,2.575,0,0,1-.03-.737c-1.28-.151-2.558-.3-3.838-.425-1.466-.146-7.015-1.3-8.22-.836a1.034,1.034,0,0,0-.122.049l-.017.009c-.018.085-.032.17-.05.257A67.443,67.443,0,0,1,469.692,261.07ZM412.662,178.2c.041.029.088.047.126.079,5.866,4.72,14.479,5.891,21.789,6.181,6.829.268,16.09.46,21.942-3.87a141.53,141.53,0,0,0-22.565-35.812A144.409,144.409,0,0,0,412.662,178.2ZM400.4,250.026a.592.592,0,0,1,.059.323,66.458,66.458,0,0,0,4.257,13.836A113.049,113.049,0,0,0,416.65,284.8c.029.038.055.079.084.117l.674-.006c11.833-.043,23.668-.327,35.5-.349.02,0,.032,0,.052,0a93.28,93.28,0,0,0,11.829-21.553c5.172-13.985,5.975-28.452,3.5-43.122A166.1,166.1,0,0,0,457.9,183.772c-5.994,3.674-14.211,4.112-21.032,4.073-.461,0-.919-.008-1.365-.014-.957-.014-1.94-.043-2.937-.09-7.149-.326-15.106-1.6-21.139-5.444-.152-.1-.306-.189-.455-.288-.018.038-.035.081-.052.119a150.823,150.823,0,0,0-10.9,39.093A90.068,90.068,0,0,0,400.4,250.026ZM378.375,282.6c3.857,1.822,6.732-4.106,8.881-8.628a32.112,32.112,0,0,1,1.989-3.822c2.622-3.814,5.782-6.345,10.438-7.025a4.291,4.291,0,0,1,.434-.039,84.152,84.152,0,0,1-3.437-11.208,1.138,1.138,0,0,1-.173-.081c-2.2-1.422-8.009-.189-11.844.545-1.108,5.881-5.8,27.1-6.255,29.94A.977.977,0,0,0,378.375,282.6Zm35.357-68.7c5.169-11.005,18.44-13.6,29.257-11.17.466.1.708.262.787.449a1.4,1.4,0,0,1,.378.053c11.727,3.846,17.148,16.331,11.343,27.517a22.913,22.913,0,0,1-27.281,11.252C415.746,238.1,407.722,226.7,413.732,213.9Zm16.375,25.5c22.862,7.15,32.5-26.874,10.523-34.08a.694.694,0,0,1-.4-.268c-10.663-2.379-22.441,1.921-23.951,14.008C415.076,228.679,421,236.558,430.107,239.406Zm-8.346-21.553c3.313-7.054,11.03-8.907,18.134-7.309a1.647,1.647,0,0,1,.749.338c6.572,2.339,9.975,9.167,7,15.794A14.058,14.058,0,0,1,429.854,234C423.2,231.652,418.461,224.877,421.76,217.853ZM433.338,231.4c11.247,2.761,15.045-14.262,4.415-17.749a2.166,2.166,0,0,1-.482-.224C424.281,210.559,420.78,228.312,433.338,231.4Z" transform="translate(-75.372 -141.886)" fill="url(#linear-gradient)"/>
</svg>
